<svg width="16" height="16" viewBox="0 0 16 16" fill="none" xmlns="http://www.w3.org/2000/svg">
<path d="M6.66667 1.33331V6.66665L8.66667 4.66665L10.6667 6.66665V1.33331" stroke="#4B61A1" stroke-width="1.33333" stroke-linecap="round" stroke-linejoin="round"/>
<path d="M2.66667 13V2.99998C2.66667 2.55795 2.84227 2.13403 3.15483 1.82147C3.46739 1.50891 3.89131 1.33331 4.33334 1.33331H12.6667C12.8435 1.33331 13.0131 1.40355 13.1381 1.52858C13.2631 1.6536 13.3333 1.82317 13.3333 1.99998V14C13.3333 14.1768 13.2631 14.3464 13.1381 14.4714C13.0131 14.5964 12.8435 14.6666 12.6667 14.6666H4.33334C3.89131 14.6666 3.46739 14.4911 3.15483 14.1785C2.84227 13.8659 2.66667 13.442 2.66667 13ZM2.66667 13C2.66667 12.558 2.84227 12.134 3.15483 11.8215C3.46739 11.5089 3.89131 11.3333 4.33334 11.3333H13.3333" stroke="#4B61A1" stroke-width="1.33333" stroke-linecap="round" stroke-linejoin="round"/>
</svg>
