<svg width="16" height="16" viewBox="0 0 16 16" fill="none" xmlns="http://www.w3.org/2000/svg">
<path d="M10 12H6.66669" stroke="#4B61A1" stroke-width="1.33333" stroke-linecap="round" stroke-linejoin="round"/>
<path d="M12 9.33331H6.66669" stroke="#4B61A1" stroke-width="1.33333" stroke-linecap="round" stroke-linejoin="round"/>
<path d="M2.66665 14.6666H13.3333C13.6869 14.6666 14.0261 14.5262 14.2761 14.2761C14.5262 14.0261 14.6666 13.6869 14.6666 13.3333V2.66665C14.6666 2.31302 14.5262 1.97389 14.2761 1.72384C14.0261 1.47379 13.6869 1.33331 13.3333 1.33331H5.33331C4.97969 1.33331 4.64055 1.47379 4.3905 1.72384C4.14046 1.97389 3.99998 2.31302 3.99998 2.66665V13.3333C3.99998 13.6869 3.8595 14.0261 3.60946 14.2761C3.35941 14.5262 3.02027 14.6666 2.66665 14.6666ZM2.66665 14.6666C2.31302 14.6666 1.97389 14.5262 1.72384 14.2761C1.47379 14.0261 1.33331 13.6869 1.33331 13.3333V7.33331C1.33331 6.97969 1.47379 6.64055 1.72384 6.3905C1.97389 6.14046 2.31302 5.99998 2.66665 5.99998H3.99998" stroke="#4B61A1" stroke-width="1.33333" stroke-linecap="round" stroke-linejoin="round"/>
<path d="M11.3334 4H7.33335C6.96516 4 6.66669 4.29848 6.66669 4.66667V6C6.66669 6.36819 6.96516 6.66667 7.33335 6.66667H11.3334C11.7015 6.66667 12 6.36819 12 6V4.66667C12 4.29848 11.7015 4 11.3334 4Z" stroke="#4B61A1" stroke-width="1.33333" stroke-linecap="round" stroke-linejoin="round"/>
</svg>
