<svg width="16" height="16" viewBox="0 0 16 16" fill="none" xmlns="http://www.w3.org/2000/svg">
<path d="M12 5.33335V4.00002C12 3.6464 11.8595 3.30726 11.6095 3.05721C11.3594 2.80716 11.0203 2.66669 10.6667 2.66669H2.66666C2.31304 2.66669 1.9739 2.80716 1.72385 3.05721C1.4738 3.30726 1.33333 3.6464 1.33333 4.00002V8.66669C1.33333 9.02031 1.4738 9.35945 1.72385 9.6095C1.9739 9.85954 2.31304 10 2.66666 10H8" stroke="#4B61A1" stroke-width="1.33333" stroke-linecap="round" stroke-linejoin="round"/>
<path d="M6.66667 12.6667V10.0267V12.1267" stroke="#4B61A1" stroke-width="1.33333" stroke-linecap="round" stroke-linejoin="round"/>
<path d="M4.66667 12.6667H8.00001" stroke="#4B61A1" stroke-width="1.33333" stroke-linecap="round" stroke-linejoin="round"/>
<path d="M13.3333 8H12C11.2636 8 10.6667 8.59695 10.6667 9.33333V13.3333C10.6667 14.0697 11.2636 14.6667 12 14.6667H13.3333C14.0697 14.6667 14.6667 14.0697 14.6667 13.3333V9.33333C14.6667 8.59695 14.0697 8 13.3333 8Z" stroke="#4B61A1" stroke-width="1.33333" stroke-linecap="round" stroke-linejoin="round"/>
</svg>
