<svg width="14" height="14" viewBox="0 0 14 14" fill="none" xmlns="http://www.w3.org/2000/svg">
<g clip-path="url(#clip0_261_117)">
<path d="M14 7.0426C14 3.17685 10.8657 0.0426025 7 0.0426025C3.13425 0.0426025 0 3.17685 0 7.0426C0 10.5368 2.55967 13.4324 5.90625 13.9574V9.06619H4.12883V7.04202H5.90625V5.50085C5.90625 3.74677 6.95158 2.77727 8.5505 2.77727C9.31583 2.77727 10.1173 2.91435 10.1173 2.91435V4.63694H9.23417C8.36442 4.63694 8.09317 5.17652 8.09317 5.7301V7.0426H10.0345L9.72417 9.06677H8.09317V13.958C11.4403 13.4324 14 10.5362 14 7.0426Z" fill="white"/>
</g>
<defs>
<clipPath id="clip0_261_117">
<rect width="14" height="14" fill="white"/>
</clipPath>
</defs>
</svg>
