<svg width="35" height="43" viewBox="0 0 35 43" fill="none" xmlns="http://www.w3.org/2000/svg">
<path d="M2.28101 3.0562C2.28101 1.36831 3.65333 0 5.34618 0H23.3808L34.9999 11.1942V39.9438C34.9999 41.6317 33.6276 43 31.9348 43H5.34618C3.65333 43 2.28101 41.6317 2.28101 39.9438V3.0562Z" fill="white"/>
<path d="M2.28101 39.9438V3.0562C2.28101 1.36831 3.65333 0 5.34618 0H23.3808L34.9999 11.1942V39.9438C34.9999 41.6317 33.6276 43 31.9348 43V41.3653C32.7221 41.3653 33.3604 40.7289 33.3604 39.9438V11.8878L22.7181 1.63471H5.34618C4.55881 1.63471 3.92052 2.27113 3.92052 3.0562V39.9438C3.92052 40.7289 4.55881 41.3653 5.34618 41.3653V43L5.2671 42.999C3.6108 42.9572 2.28101 41.6053 2.28101 39.9438ZM31.9348 41.3653V43H5.34618V41.3653H31.9348Z" fill="#272727"/>
<path d="M25.4429 12.2249C23.871 12.2249 22.5967 10.9612 22.5967 9.40236L22.5967 1.49268L28.1568 6.85879L33.7168 12.2249L25.4429 12.2249Z" fill="white"/>
<path d="M21.9907 9.14059V0.497559H23.6302V9.14059L23.631 9.19903C23.6622 10.422 24.6695 11.4075 25.9121 11.4075H34.9286V13.0422H25.9121C23.7654 13.0422 22.0182 11.3246 21.9911 9.19105L21.9907 9.14059Z" fill="#272727"/>
<rect y="26.3687" width="27.3727" height="12.1537" rx="6.07686" fill="#FF2116"/>
<path d="M18.926 29.2527V35.8215H17.7903V29.2527H18.926ZM21.6137 32.1265V33.0243H18.6364V32.1265H21.6137ZM21.9893 29.2527V30.155H18.6364V29.2527H21.9893Z" fill="white"/>
<path d="M13.6501 35.8215H12.2429L12.2519 34.9237H13.6501C14.0573 34.9237 14.3982 34.835 14.6727 34.6575C14.9502 34.4801 15.1583 34.2259 15.2971 33.8951C15.4389 33.5642 15.5098 33.1702 15.5098 32.7131V32.3566C15.5098 32.0017 15.469 31.6874 15.3876 31.4137C15.3092 31.14 15.1915 30.9099 15.0347 30.7235C14.8808 30.537 14.6908 30.3956 14.4645 30.2994C14.2413 30.2031 13.9834 30.155 13.6908 30.155H12.2157V29.2527H13.6908C14.1282 29.2527 14.5279 29.3264 14.8899 29.4738C15.2519 29.6181 15.5641 29.8272 15.8265 30.1009C16.092 30.3746 16.2956 30.7024 16.4374 31.0844C16.5791 31.4664 16.65 31.8935 16.65 32.3657V32.7131C16.65 33.1853 16.5791 33.6124 16.4374 33.9943C16.2956 34.3763 16.092 34.7042 15.8265 34.9779C15.5611 35.2485 15.2443 35.4576 14.8763 35.605C14.5113 35.7493 14.1026 35.8215 13.6501 35.8215ZM12.8718 29.2527V35.8215H11.7361V29.2527H12.8718Z" fill="white"/>
<path d="M8.31984 33.3717H6.60494V32.4739H8.31984C8.61848 32.4739 8.85981 32.4258 9.04381 32.3296C9.22782 32.2333 9.36206 32.101 9.44652 31.9326C9.534 31.7611 9.57774 31.5656 9.57774 31.346C9.57774 31.1385 9.534 30.9445 9.44652 30.7641C9.36206 30.5806 9.22782 30.4332 9.04381 30.3219C8.85981 30.2106 8.61848 30.155 8.31984 30.155H6.95335V35.8215H5.81763V29.2527H8.31984C8.82964 29.2527 9.26251 29.3429 9.61846 29.5234C9.97743 29.7008 10.2504 29.9475 10.4375 30.2633C10.6245 30.5761 10.718 30.934 10.718 31.337C10.718 31.7611 10.6245 32.125 10.4375 32.4288C10.2504 32.7326 9.97743 32.9657 9.61846 33.1281C9.26251 33.2905 8.82964 33.3717 8.31984 33.3717Z" fill="white"/>
<path fill-rule="evenodd" clip-rule="evenodd" d="M17.4033 8.17477C18.0486 8.14705 18.6989 8.6043 18.9585 9.51179L18.9769 9.57946C19.159 10.2843 19.0924 11.1651 18.9418 12.0361C18.7904 12.912 18.5474 13.8114 18.356 14.5574C18.5522 14.9807 18.9388 15.5745 19.3767 16.1623C19.8055 16.7379 20.2713 17.2915 20.6315 17.6533C23.1045 17.2828 24.568 17.3188 25.5599 17.791L25.5928 17.807C26.279 18.1477 26.5819 18.7453 26.5061 19.3057C26.4304 19.8656 25.9819 20.334 25.2898 20.4149L25.2566 20.4184C24.7083 20.4721 24.0245 20.4721 23.1915 20.2179C22.3784 19.9696 21.4338 19.4822 20.3392 18.5827C19.708 18.6776 18.1069 19.0023 16.2006 19.6593C15.8157 20.2788 15.3576 21.0062 14.8818 21.6739C14.4072 22.3398 13.9045 22.9619 13.4299 23.3584L13.384 23.396C12.5961 24.032 11.8781 24.2678 11.2921 24.2331C10.7048 24.1982 10.2642 23.8898 10.0664 23.4774L10.062 23.4683L10.0586 23.459C9.92585 23.0988 9.9647 22.7437 10.145 22.4004C10.3207 22.0658 10.6295 21.7432 11.0368 21.4218C11.8402 20.7878 13.0903 20.1101 14.6749 19.3236C15.1934 18.2847 16.3112 15.8628 16.9275 13.8962C16.6351 13.173 16.0529 11.4134 16.1549 9.55857L16.1575 9.51949C16.2185 8.70266 16.765 8.20221 17.4033 8.17477ZM13.8194 20.674C12.0766 21.4906 11.2435 22.1616 10.9221 22.6284C10.744 22.8872 10.7488 23.0431 10.7785 23.1184C10.8081 23.1934 10.8934 23.2661 11.0529 23.2911L11.0818 23.2949C11.3824 23.3283 11.7683 23.1597 12.2913 22.6399C12.7284 22.2055 13.23 21.5567 13.8194 20.674ZM23.8807 18.2433C23.2508 18.1617 22.4005 18.2209 21.4145 18.3679C22.5947 19.1455 23.492 19.4605 24.0935 19.5057C24.4299 19.531 24.6539 19.4709 24.7865 19.3834C24.9098 19.3021 24.9691 19.1883 24.9702 19.0473C24.9589 18.809 24.864 18.6422 24.6979 18.5177C24.5209 18.3849 24.2502 18.2912 23.8807 18.2433ZM17.9747 15.5464C17.4934 16.9216 17.0354 17.9843 16.7413 18.6051C18.0358 18.2215 19.1016 17.9761 19.714 17.8543C18.9839 16.9941 18.3505 16.1082 17.9747 15.5464ZM17.637 9.14864C17.5641 9.07151 17.4655 9.03659 17.3171 9.05716C17.2195 9.07432 17.11 9.16124 17.0251 9.40643C16.9414 9.64823 16.9024 9.99316 16.9157 10.4067C16.9368 11.0641 17.0887 11.8558 17.3559 12.5987C17.7519 11.2177 17.8755 10.2995 17.8276 9.73362C17.8004 9.41268 17.7206 9.23711 17.637 9.14864Z" fill="#FF2116"/>
</svg>
