<svg width="39" height="46" viewBox="0 0 39 46" fill="none" xmlns="http://www.w3.org/2000/svg">
<path d="M38 44.4483H5.44189V1H28.5888V10.7482H38V44.4483Z" fill="#FCFCFC" stroke="#818181" stroke-width="2" stroke-miterlimit="10"/>
<path d="M20.2232 11.9102H1.88415C0.843562 11.9102 0 12.7544 0 13.7959V32.1508C0 33.1923 0.843562 34.0366 1.88415 34.0366H20.2232C21.2638 34.0366 22.1073 33.1923 22.1073 32.1508V13.7959C22.1073 12.7544 21.2638 11.9102 20.2232 11.9102Z" fill="#107C42"/>
<path d="M17.5805 31.2398H14.4069L5.01318 15.4448H8.25021L17.5805 31.2398Z" fill="white"/>
<path d="M5.01318 31.2398H8.18674L17.5805 15.4448H14.3434L5.01318 31.2398Z" fill="white"/>
<path d="M28.5888 17.5674H23.2629V19.9309H28.5888V17.5674Z" fill="#21A365"/>
<path d="M35.1708 17.5674H29.845V19.9309H35.1708V17.5674Z" fill="#33C481"/>
<path d="M28.5888 21.1382H23.2629V23.5017H28.5888V21.1382Z" fill="#107C42"/>
<path d="M35.1708 21.1382H29.845V23.5017H35.1708V21.1382Z" fill="#21A365"/>
<path d="M28.5888 24.7085H23.2629V27.072H28.5888V24.7085Z" fill="#195D38"/>
<path d="M35.1708 24.7085H29.845V27.072H35.1708V24.7085Z" fill="#104B2B"/>
</svg>
