<svg width="16" height="16" viewBox="0 0 16 16" fill="none" xmlns="http://www.w3.org/2000/svg">
<path d="M7.33331 3.13467C7.33318 3.04181 7.30554 2.95107 7.25389 2.8739C7.20223 2.79674 7.12888 2.7366 7.04308 2.70108C6.95729 2.66557 6.86289 2.65626 6.77181 2.67434C6.68073 2.69242 6.59704 2.73707 6.53131 2.80266L4.27531 5.058C4.18825 5.14558 4.08467 5.21502 3.97057 5.26228C3.85648 5.30954 3.73414 5.33369 3.61065 5.33333H1.99998C1.82317 5.33333 1.6536 5.40357 1.52858 5.52859C1.40355 5.65362 1.33331 5.82319 1.33331 6V10C1.33331 10.1768 1.40355 10.3464 1.52858 10.4714C1.6536 10.5964 1.82317 10.6667 1.99998 10.6667H3.61065C3.73414 10.6663 3.85648 10.6905 3.97057 10.7377C4.08467 10.785 4.18825 10.8544 4.27531 10.942L6.53065 13.198C6.59638 13.2639 6.68018 13.3087 6.77144 13.3269C6.8627 13.3451 6.9573 13.3358 7.04326 13.3002C7.12923 13.2645 7.20268 13.2042 7.25431 13.1268C7.30595 13.0494 7.33344 12.9584 7.33331 12.8653V3.13467Z" stroke="#4B61A1" stroke-width="1.33333" stroke-linecap="round" stroke-linejoin="round"/>
<path d="M10.6667 6C11.0994 6.57699 11.3334 7.27877 11.3334 8C11.3334 8.72123 11.0994 9.42301 10.6667 10" stroke="#4B61A1" stroke-width="1.33333" stroke-linecap="round" stroke-linejoin="round"/>
<path d="M12.9094 12.2427C13.4665 11.6855 13.9085 11.0241 14.21 10.2961C14.5116 9.56815 14.6667 8.78793 14.6667 7.99999C14.6667 7.21205 14.5116 6.43183 14.21 5.70387C13.9085 4.97591 13.4665 4.31448 12.9094 3.75732" stroke="#4B61A1" stroke-width="1.33333" stroke-linecap="round" stroke-linejoin="round"/>
</svg>
