<svg width="14" height="14" viewBox="0 0 14 14" fill="none" xmlns="http://www.w3.org/2000/svg">
<path d="M13.9726 2.6658C13.4484 2.89657 12.8932 3.0489 12.3247 3.11789C12.9232 2.75812 13.3714 2.19391 13.5864 1.52947C13.0317 1.85322 12.4168 2.08889 11.7623 2.22014C11.3305 1.75839 10.7583 1.45213 10.1346 1.34893C9.51091 1.24573 8.87057 1.35135 8.31305 1.6494C7.75552 1.94745 7.312 2.42124 7.05136 2.99721C6.79073 3.57318 6.72756 4.21909 6.87167 4.83464C4.48583 4.72205 2.37242 3.5758 0.956667 1.84447C0.699296 2.28186 0.565054 2.78073 0.568167 3.28822C0.568167 4.28572 1.07567 5.16247 1.8445 5.67755C1.38883 5.66305 0.943233 5.53985 0.544833 5.31822V5.35322C0.544575 6.01611 0.773657 6.65868 1.19321 7.17191C1.61277 7.68514 2.19696 8.03741 2.84667 8.16897C2.42567 8.28177 1.98474 8.29872 1.55633 8.21855C1.74074 8.78906 2.09864 9.28777 2.58009 9.64509C3.06155 10.0024 3.64254 10.2005 4.242 10.2118C3.22672 11.0086 1.97311 11.4411 0.6825 11.4397C0.455 11.4397 0.228083 11.4263 0 11.4006C1.31583 12.2432 2.8458 12.6904 4.40825 12.6892C9.68917 12.6892 12.5737 8.31655 12.5737 4.5313C12.5737 4.4088 12.5738 4.2863 12.565 4.1638C13.1285 3.75831 13.6146 3.25486 14 2.67747L13.9726 2.6658Z" fill="white"/>
</svg>
