<svg width="67" height="61" viewBox="0 0 67 61" fill="none" xmlns="http://www.w3.org/2000/svg">
<path d="M33.3617 20.1709V33.6181M7.74121 41.0134C4.68389 46.3088 3.15567 48.9575 3.38402 51.1301C3.5832 53.0252 4.57781 54.7469 6.11941 55.8669C7.8862 57.1506 10.9416 57.1506 17.0521 57.1506H49.6713C55.7818 57.1506 58.8367 57.1506 60.6035 55.8669C62.1451 54.7469 63.1402 53.0252 63.3394 51.1301C63.5677 48.9575 62.0399 46.3088 58.9826 41.0134L42.6788 12.7744C39.6215 7.47893 38.0922 4.83166 36.0964 3.9431C34.3556 3.16806 32.3666 3.16806 30.6258 3.9431C28.6309 4.8313 27.1025 7.47858 24.0477 12.7696L7.74121 41.0134ZM33.5324 43.7034V44.0396L33.1943 44.0403V43.7034H33.5324Z" stroke="#F59E0B" stroke-width="6.72357" stroke-linecap="round" stroke-linejoin="round"/>
</svg>
